<svg aria-hidden="true" style="width:0;height:0;position:absolute;overflow:hidden" xmlns="http://www.w3.org/2000/svg"><defs><symbol id="icon-close" viewBox="0 0 32 32"><path d="M32 3.223 28.777 0 16 12.777 3.223 0 0 3.223 12.777 16 0 28.777 3.223 32 16 19.223 28.777 32 32 28.777 19.223 16 32 3.223z"/></symbol><symbol id="icon-play" viewBox="0 0 28 20"><path d="M27.973 3.123A3.578 3.578 0 0 0 25.447.597C23.22 0 14.285 0 14.285 0S5.35 0 3.123.597A3.578 3.578 0 0 0 .597 3.123C0 5.35 0 10 0 10s0 4.65.597 6.877a3.578 3.578 0 0 0 2.526 2.526C5.35 20 14.285 20 14.285 20s8.935 0 11.162-.597a3.578 3.578 0 0 0 2.526-2.526C28.57 14.65 28.57 10 28.57 10s-.002-4.65-.597-6.877Z" fill="red"/><path d="M11.425 14.285 18.848 10l-7.423-4.285v8.57Z" fill="#fff"/></symbol><symbol id="icon-record" viewBox="0 0 32 32"><path d="M16 0C7.163 0 0 7.163 0 16s7.163 16 16 16 16-7.163 16-16S24.837 0 16 0zm0 28C9.373 28 4 22.627 4 16S9.373 4 16 4s12 5.373 12 12-5.373 12-12 12zm-6-12a6 6 0 1 1 12 0 6 6 0 0 1-12 0z"/></symbol><symbol id="icon-mic" viewBox="0 0 32 32"><path d="M15 22a5 5 0 0 0 5-5V5a5 5 0 0 0-10 0v12a5 5 0 0 0 5 5zm7-8v3a7 7 0 1 1-14 0v-3H6v3a9 9 0 0 0 8 8.944V30h-4v2h10v-2h-4v-4.056A9 9 0 0 0 24 17v-3h-2z"/></symbol><symbol id="search" viewBox="0 0 12 12"><path d="M5.5 9.5a4 4 0 1 0 0-8 4 4 0 0 0 0 8Z" stroke="#fff" stroke-linecap="round" stroke-linejoin="round" fill="none"/><path d="M10.5 10.5 8.325 8.325" stroke="#fff" stroke-linecap="round" stroke-linejoin="round"/></symbol><symbol viewBox="0 0 24 24" fill="none" id="logo"><path d="M19.82 2H4.18A2.18 2.18 0 0 0 2 4.18v15.64A2.18 2.18 0 0 0 4.18 22h15.64A2.18 2.18 0 0 0 22 19.82V4.18A2.18 2.18 0 0 0 19.82 2ZM7 2v20M17 2v20M2 12h20M2 7h5M2 17h5M17 17h5M17 7h5" stroke-width="2" stroke-linecap="round" stroke-linejoin="round"/></symbol><symbol id="heart" viewBox="0 0 34 32"><path fill="var(--color1, #ff6b08)" d="m17.231 31.705-2.412-2.412C5.859 21.367.001 16.025.001 9.478.001 4.136 4.136.001 9.478.001c2.929 0 5.858 1.378 7.754 3.618 1.895-2.24 4.825-3.618 7.754-3.618 5.342 0 9.477 4.135 9.477 9.477 0 6.548-5.858 11.889-14.818 19.815l-2.412 2.412z"/></symbol><symbol viewBox="0 0 24 24" id="google"><path fill="#4285F4" d="M-3.264 51.509c0-.79-.07-1.54-.19-2.27h-11.3v4.51h6.47c-.29 1.48-1.14 2.73-2.4 3.58v3h3.86c2.26-2.09 3.56-5.17 3.56-8.82Z" transform="translate(27.009 -39.239)"/><path fill="#34A853" d="M-14.754 63.239c3.24 0 5.95-1.08 7.93-2.91l-3.86-3c-1.08.72-2.45 1.16-4.07 1.16-3.13 0-5.78-2.11-6.73-4.96h-3.98v3.09c1.97 3.92 6.02 6.62 10.71 6.62Z" transform="translate(27.009 -39.239)"/><path fill="#FBBC05" d="M-21.484 53.529c-.25-.72-.38-1.49-.38-2.29s.14-1.57.38-2.29v-3.09h-3.98a11.86 11.86 0 0 0 0 10.76l3.98-3.09Z" transform="translate(27.009 -39.239)"/><path fill="#EA4335" d="M-14.754 43.989c1.77 0 3.35.61 4.6 1.8l3.42-3.42c-2.07-1.94-4.78-3.13-8.02-3.13-4.69 0-8.74 2.7-10.71 6.62l3.98 3.09c.95-2.85 3.6-4.96 6.73-4.96Z" transform="translate(27.009 -39.239)"/></symbol><symbol id="arrow-up" viewBox="0 0 18 19"><path fill="#ff6b08" d="m2 10 7-6 7 6v2L9 6l-7 6Z"/></symbol></defs></svg>